# xmcd
#
# Track frame offsets:
#	150
#	15925
#	29892
#	48767
#	71055
#	84134
#	95337
#	107070
#	124434
#	134505
#	147412
#	165353
#	180360
#
# Disc length: 2632 seconds
#
# Revision: 1
# Processed by: cddbd v1.5.2PL0 Copyright (c) Steve Scherf et al.
# Submitted via: audiograbber 1.83.01
#
DISCID=a80a460d
DTITLE=Agnès Bihl - Rêve général(e)
DYEAR=2010
DGENRE=Chanson
TTITLE0=C'est encore loin l'amour ?
TTITLE1=De bouche à oreilles
TTITLE2=Je t'aime que moi
TTITLE3=Je pleure, tu pleures, il pleut
TTITLE4=Quand on voit c'qu'on voit
TTITLE5=SDF tango
TTITLE6=Gueule de bois
TTITLE7=Véro
TTITLE8=Elle et lui
TTITLE9=Habitez-vous chez vos amants ?
TTITLE10=Mamie les cheveux mauves
TTITLE11=No flouze blues
TTITLE12=Soif de champagne
EXTD=
EXTT0=
EXTT1=
EXTT2=
EXTT3=
EXTT4=
EXTT5=
EXTT6=
EXTT7=
EXTT8=
EXTT9=
EXTT10=
EXTT11=
EXTT12=
PLAYORDER=
